<?xml version="1.0" standalone="no"?>
<!DOCTYPE svg PUBLIC "-//W3C//DTD SVG 20010904//EN"
 "http://www.w3.org/TR/2001/REC-SVG-20010904/DTD/svg10.dtd">
<svg version="1.0" xmlns="http://www.w3.org/2000/svg"
 width="1232.000000pt" height="1232.000000pt" viewBox="0 0 1232.000000 1232.000000"
 preserveAspectRatio="xMidYMid meet">
<metadata>
Created by potrace 1.14, written by Peter Selinger 2001-2017
</metadata>
<g transform="translate(0.000000,1232.000000) scale(0.100000,-0.100000)"
fill="#000000" stroke="none">
<path d="M5860 12267 c-3 -2 -59 -7 -125 -11 -471 -26 -1017 -131 -1494 -287
-148 -49 -421 -150 -493 -182 -18 -9 -89 -41 -158 -72 -131 -59 -446 -220
-509 -259 -20 -13 -76 -47 -126 -76 -128 -75 -338 -217 -490 -330 -1196 -890
-2029 -2185 -2335 -3627 -25 -121 -38 -190 -65 -363 -9 -59 -24 -180 -30 -240
-4 -36 -8 -76 -11 -90 -19 -121 -27 -818 -11 -1010 11 -142 32 -334 42 -390 2
-14 7 -45 10 -70 39 -298 146 -735 261 -1071 402 -1169 1154 -2192 2158 -2934
731 -540 1580 -914 2474 -1089 178 -35 398 -69 527 -81 39 -4 84 -9 100 -11
215 -26 1023 -25 1160 1 11 2 49 7 85 10 121 11 410 55 558 86 81 17 157 32
168 35 71 14 319 81 429 115 841 261 1611 692 2265 1269 667 588 1186 1295
1557 2120 202 451 391 1104 448 1550 3 25 8 56 10 70 10 60 33 277 42 400 10
134 10 733 0 865 -7 88 -14 166 -32 325 -3 25 -10 72 -15 105 -5 33 -11 76
-14 95 -44 292 -150 719 -251 1010 -396 1142 -1118 2142 -2075 2870 -151 115
-132 102 -360 254 -604 402 -1281 692 -2005 860 -132 30 -372 76 -475 90 -19
2 -69 9 -110 15 -94 13 -145 18 -240 26 -41 4 -91 9 -110 12 -45 6 -754 16
-760 10z"/>
</g>
</svg>
